# xmcd
#
# Track frame offsets: 
#        187
#        12790
#        24462
#        35955
#        48707
#        58507
#        70932
#        86732
#        107090
#        122195
#        139357
#
# Disc length: 2084 seconds
#
# Revision: 5
# Processed by: cddbd v1.5.2PL0 Copyright (c) Steve Scherf et al.
# Submitted via: ExactAudioCopy v0.99pb4
#
DISCID=a008220b
DTITLE=Albert King - Born Under A Bad Sign [MSFL UDCD 577]
DYEAR=1967
DGENRE=Blues
TTITLE0=Born Under A Bad Sign
TTITLE1=Crosscut Saw
TTITLE2=Kansas City
TTITLE3=Oh, Pretty Woman
TTITLE4=Down Don't Bother Me
TTITLE5=The Hunter
TTITLE6=I Almost Lost My Mind
TTITLE7=Personal Manager
TTITLE8=Laundromat Blues
TTITLE9=As The Years Go Passing By
TTITLE10=The Very Thought Of You
EXTD=UDCD 577\n\nSubmitted 6/12/97\n[Jmccoy@efn.org]
EXTT0=
EXTT1=
EXTT2=
EXTT3=
EXTT4=
EXTT5=
EXTT6=
EXTT7=
EXTT8=
EXTT9=
EXTT10=
PLAYORDER=
